<?xml version="1.0" encoding="iso-8859-1"?>
<!-- Generator: Adobe Illustrator 19.0.0, SVG Export Plug-In . SVG Version: 6.00 Build 0)  -->
<svg version="1.1" id="Capa_1" xmlns="http://www.w3.org/2000/svg" xmlns:xlink="http://www.w3.org/1999/xlink" x="0px" y="0px"
	 viewBox="0 0 512 512" style="enable-background:new 0 0 512 512;" xml:space="preserve">
<g>
	<g>
		<path d="M497,0H15C6.716,0,0,6.716,0,15v385.6c0,8.284,6.716,15,15,15h81.4V497c0,6.067,3.655,11.537,9.26,13.858
			c1.856,0.769,3.805,1.142,5.737,1.142c3.904,0,7.741-1.524,10.61-4.394l92.006-92.007H497c8.284,0,15-6.716,15-15V15
			C512,6.716,505.284,0,497,0z M454.239,30L256,188.59L57.762,30H454.239z M482,385.6H207.8c-3.979,0-7.794,1.581-10.607,4.394
			L126.4,460.787V400.6c0-8.284-6.716-15-15-15H30V46.21l216.63,173.303c2.739,2.191,6.055,3.287,9.371,3.287
			c3.315,0,6.631-1.096,9.37-3.287L482,46.209V385.6z"/>
	</g>
</g>
<g>
</g>
<g>
</g>
<g>
</g>
<g>
</g>
<g>
</g>
<g>
</g>
<g>
</g>
<g>
</g>
<g>
</g>
<g>
</g>
<g>
</g>
<g>
</g>
<g>
</g>
<g>
</g>
<g>
</g>
</svg>
